  <svg xmlns="http://www.w3.org/2000/svg" width="16" height="16" fill="currentColor" style="display: none;">
    <symbol id="person" viewBox="0 0 24 24">
            <path d="M3 14s-1 0-1-1 1-4 6-4 6 3 6 4-1 1-1 1H3zm5-6a3 3 0 1 0 0-6 3 3 0 0 0 0 6z"/>
    </symbol>
    <symbol id="telephone" viewBox="0 0 24 24">
            <path fill-rule="evenodd" d="M1.885.511a1.745 1.745 0 0 1 2.61.163L6.29 2.98c.329.423.445.974.315 1.494l-.547 2.19a.678.678 0 0 0 .178.643l2.457 2.457a.678.678 0 0 0 .644.178l2.189-.547a1.745 1.745 0 0 1 1.494.315l2.306 1.794c.829.645.905 1.87.163 2.611l-1.034 1.034c-.74.74-1.846 1.065-2.877.702a18.634 18.634 0 0 1-7.01-4.42 18.634 18.634 0 0 1-4.42-7.009c-.362-1.03-.037-2.137.703-2.877L1.885.511z"/>
    </symbol>
     <symbol id="a" viewBox="0 0 24 24">
    <path d="M3 3a3 3 0 0 0-3 3v12a3 3 0 0 0 3 3h18a3 3 0 0 0 3-3V6a3 3 0 0 0-3-3zm9 9a4 4 0 1 1 0-8 4 4 0 0 1 0 8zm9-2c-.68 0-1.23-.45-1.23-1 0-.55.55-1 1.23-1s1.23.45 1.23 1c0 .55-.55 1-1.23 1zM3 5a1 1 0 0 1 1-1h1v2H4v12h16V6h-2V4h1a1 1 0 0 1 1 1v2H3V5z" />
  </symbol>
  <symbol id="b" viewBox="0 0 24 24">
    <path d="M12 22s-7-5.5-7-12a7 7 0 1 1 14 0c0 6.5-7 12-7 12zm0-9a3 3 0 1 0 0-6 3 3 0 0 0 0 6z" />
  </symbol>
  </svg>